<svg width="279" height="40" viewBox="0 0 279 40" fill="none" xmlns="http://www.w3.org/2000/svg">
<path d="M8.50962 32.3606C7.23758 32.3606 6.18089 32.2454 5.33954 32.015C4.50821 31.7847 3.83714 31.4992 3.32632 31.1587C2.82552 30.8081 2.43991 30.4625 2.16947 30.122C2.07933 29.9918 1.9992 29.8666 1.92909 29.7464C1.85898 29.6262 1.8089 29.491 1.77885 29.3407C1.73878 29.1404 1.69872 28.88 1.65866 28.5595C1.61859 28.229 1.61358 27.8484 1.64363 27.4177C1.65365 27.2374 1.6887 27.1122 1.7488 27.0421C1.81891 26.9619 1.9341 26.9018 2.09435 26.8618C2.38482 26.7917 2.76042 26.7316 3.22116 26.6815C3.69191 26.6214 4.02745 26.5913 4.22777 26.5913C4.4381 26.5913 4.60837 26.6314 4.73858 26.7115C4.86879 26.7917 5.02404 26.9269 5.20433 27.1172C5.40465 27.3275 5.7502 27.598 6.24099 27.9285C6.73177 28.249 7.48798 28.4093 8.50962 28.4093C9.49119 28.4093 10.2324 28.2039 10.7332 27.7933C11.234 27.3826 11.4844 26.8117 11.4844 26.0805C11.4844 25.6899 11.3642 25.3243 11.1238 24.9838C10.8934 24.6332 10.4677 24.2877 9.84676 23.9471C9.22576 23.5966 8.33934 23.231 7.1875 22.8504C5.28446 22.2093 3.91226 21.4131 3.07091 20.4615C2.22957 19.51 1.8089 18.1879 1.8089 16.4952C1.8089 15.0929 2.14944 13.9211 2.83053 12.9796C3.51162 12.0381 4.45313 11.3269 5.65505 10.8462C6.85697 10.3654 8.24419 10.125 9.81671 10.125C11.0286 10.125 12.0302 10.2702 12.8215 10.5607C13.6228 10.8411 14.2438 11.1617 14.6845 11.5222C15.1252 11.8728 15.4107 12.1583 15.5409 12.3786C15.621 12.5088 15.6711 12.609 15.6911 12.6791C15.7212 12.7392 15.7412 12.8243 15.7512 12.9345C15.7813 13.245 15.7913 13.5905 15.7813 13.9712C15.7712 14.3518 15.7362 14.7825 15.6761 15.2632C15.646 15.4235 15.5909 15.5337 15.5108 15.5937C15.4407 15.6438 15.3305 15.6689 15.1803 15.6689C14.2087 15.6889 13.4575 15.6388 12.9267 15.5186C12.7163 15.4685 12.5761 15.4185 12.506 15.3684C12.4359 15.3183 12.3458 15.2382 12.2356 15.128C12.0753 14.9377 11.8199 14.7173 11.4694 14.4669C11.1288 14.2065 10.5779 14.0763 9.81671 14.0763C8.76503 14.0763 8.01883 14.3167 7.57813 14.7975C7.13742 15.2682 6.91707 15.7991 6.91707 16.39C6.91707 17.0911 7.24259 17.642 7.89363 18.0427C8.54467 18.4333 9.57132 18.879 10.9736 19.3798C12.1454 19.7905 13.152 20.2362 13.9934 20.7169C14.8347 21.1977 15.4758 21.8137 15.9165 22.5649C16.3672 23.3161 16.5925 24.3077 16.5925 25.5397C16.5925 27.0721 16.237 28.3442 15.5258 29.3558C14.8247 30.3674 13.8632 31.1236 12.6412 31.6244C11.4293 32.1152 10.0521 32.3606 8.50962 32.3606ZM35.5811 18.1929C35.9517 17.7422 36.5226 17.3065 37.2939 16.8858C38.0751 16.4551 39.1719 16.2398 40.5841 16.2398C42.5873 16.2398 44.0347 16.7556 44.9261 17.7873C45.8175 18.8189 46.2632 20.3664 46.2632 22.4297V31.2037C46.2632 31.5042 46.1981 31.7145 46.0679 31.8347C45.9477 31.9449 45.7374 32 45.4369 32H42.3419C42.0415 32 41.8261 31.9449 41.6959 31.8347C41.5757 31.7145 41.5156 31.5042 41.5156 31.2037V23.2109C41.5156 22.0891 41.3103 21.2879 40.8996 20.8071C40.489 20.3163 39.873 20.0709 39.0517 20.0709C38.3205 20.0709 37.7396 20.2362 37.3089 20.5667C36.8882 20.8872 36.5877 21.3229 36.4075 21.8738V31.2037C36.4075 31.5042 36.3423 31.7145 36.2121 31.8347C36.0919 31.9449 35.8816 32 35.5811 32H32.4862C32.1857 32 31.9704 31.9449 31.8401 31.8347C31.72 31.7145 31.6599 31.5042 31.6599 31.2037V23.2109C31.6599 22.1192 31.4345 21.3229 30.9838 20.8221C30.5331 20.3213 29.9421 20.0709 29.2109 20.0709C28.5198 20.0709 27.9639 20.2412 27.5433 20.5817C27.1226 20.9223 26.7971 21.353 26.5667 21.8738V31.2037C26.5667 31.5042 26.5016 31.7145 26.3714 31.8347C26.2512 31.9449 26.0409 32 25.7404 32H22.6454C22.345 32 22.1296 31.9449 21.9994 31.8347C21.8792 31.7145 21.8191 31.5042 21.8191 31.2037V18.6136C21.8191 18.3732 21.8692 18.1879 21.9694 18.0577C22.1797 17.7772 22.4301 17.4918 22.7206 17.2013C23.021 16.9109 23.3866 16.6004 23.8173 16.2698C23.9475 16.1697 24.0727 16.1196 24.1929 16.1196C24.3031 16.1196 24.4283 16.1697 24.5685 16.2698C24.9892 16.6004 25.3498 16.9159 25.6502 17.2163C25.9507 17.5168 26.2161 17.8273 26.4465 18.1478H26.5216C26.8622 17.7171 27.393 17.2915 28.1142 16.8708C28.8353 16.4501 29.867 16.2398 31.2091 16.2398C32.4912 16.2398 33.4427 16.4351 34.0637 16.8257C34.6847 17.2063 35.1905 17.6621 35.5811 18.1929ZM56.1623 32.3756C54.6899 32.3756 53.518 31.9649 52.6466 31.1436C51.7853 30.3123 51.3546 29.1705 51.3546 27.7181C51.3546 26.9669 51.4898 26.2708 51.7602 25.6298C52.0407 24.9788 52.5214 24.4079 53.2025 23.9171C53.8936 23.4163 54.8552 23.0156 56.0871 22.7151C57.3291 22.4147 58.9117 22.2394 60.8347 22.1893C60.8347 21.2778 60.6044 20.6218 60.1436 20.2212C59.6929 19.8205 59.0118 19.6202 58.1004 19.6202C57.279 19.6202 56.608 19.7604 56.0871 20.0409C55.5663 20.3213 55.2408 20.5116 55.1106 20.6118C54.9704 20.732 54.8001 20.777 54.5998 20.747C54.3293 20.7069 54.0389 20.6368 53.7284 20.5367C53.4279 20.4365 53.1024 20.3213 52.7518 20.1911C52.7017 20.1711 52.6466 20.141 52.5865 20.101C52.5264 20.0509 52.4914 19.9808 52.4814 19.8906C52.4814 19.8405 52.4864 19.7804 52.4964 19.7103C52.5064 19.6302 52.5315 19.49 52.5715 19.2897C52.6116 19.0893 52.6717 18.8439 52.7518 18.5535C52.8319 18.253 52.9071 18.0226 52.9772 17.8624C53.0673 17.6921 53.2175 17.5319 53.4279 17.3816C53.5982 17.2414 54.114 17.016 54.9754 16.7055C55.8367 16.395 57.0837 16.2398 58.7163 16.2398C63.2135 16.2398 65.4621 18.4283 65.4621 22.8053V31.3089C65.4621 31.4992 65.4071 31.6645 65.2969 31.8047C65.1967 31.9349 65.0214 32 64.771 32H62.5174C62.3572 32 62.2119 31.98 62.0817 31.9399C61.9615 31.8898 61.8464 31.7997 61.7362 31.6695L60.8047 30.4675H60.6995C60.2388 31.1386 59.6178 31.6244 58.8365 31.9249C58.0653 32.2254 57.1739 32.3756 56.1623 32.3756ZM57.8149 28.89C58.7364 28.89 59.4325 28.6546 59.9032 28.1839C60.374 27.7131 60.6745 27.2274 60.8047 26.7266V25.0589C59.4125 25.0589 58.3658 25.1691 57.6647 25.3894C56.9736 25.5998 56.5128 25.8802 56.2825 26.2308C56.0521 26.5713 55.9369 26.9419 55.9369 27.3425C55.9369 27.9235 56.1172 28.3291 56.4778 28.5595C56.8383 28.7798 57.2841 28.89 57.8149 28.89ZM75.9621 19.47H76.0222C76.7734 17.3866 78.1256 16.345 80.0787 16.345C80.3291 16.345 80.5345 16.36 80.6947 16.39C80.855 16.4101 80.9651 16.4301 81.0252 16.4501C81.1755 16.5002 81.2506 16.6154 81.2506 16.7957V20.4165C81.2506 20.727 81.0703 20.8121 80.7097 20.6719C80.5895 20.6218 80.4143 20.5717 80.1839 20.5216C79.9635 20.4615 79.653 20.4315 79.2524 20.4315C78.2208 20.4315 77.4145 20.8121 76.8335 21.5733C76.2526 22.3245 75.9621 23.3512 75.9621 24.6532V31.2037C75.9621 31.5042 75.897 31.7145 75.7668 31.8347C75.6466 31.9449 75.4363 32 75.1358 32H72.0409C71.7404 32 71.525 31.9449 71.3948 31.8347C71.2746 31.7145 71.2145 31.5042 71.2145 31.2037V18.6136C71.2145 18.3732 71.2646 18.1879 71.3648 18.0577C71.5751 17.7772 71.8255 17.4918 72.116 17.2013C72.4165 16.9109 72.7821 16.6004 73.2127 16.2698C73.2929 16.2097 73.373 16.1697 73.4531 16.1496C73.5333 16.1296 73.6034 16.1196 73.6635 16.1196C73.8037 16.1196 73.9439 16.1697 74.0841 16.2698C74.9155 16.9209 75.4964 17.4768 75.8269 17.9375C75.9171 18.0577 75.9621 18.1979 75.9621 18.3582V19.47ZM92.3365 32.3756C88.9912 32.3756 87.3185 30.6378 87.3185 27.1623V20.116H85.6208C85.3203 20.116 85.11 20.0559 84.9898 19.9357C84.8796 19.8055 84.8245 19.5901 84.8245 19.2897V17.4417C84.8245 17.1412 84.8796 16.9309 84.9898 16.8107C85.11 16.6805 85.3203 16.6154 85.6208 16.6154H87.3185V14.1965C87.3185 13.9561 87.3686 13.7708 87.4687 13.6406C87.8894 13.0897 88.5054 12.4938 89.3167 11.8528C89.4569 11.7526 89.5821 11.7025 89.6923 11.7025C89.8125 11.7025 89.9327 11.7526 90.0529 11.8528C90.4836 12.1833 90.8441 12.4938 91.1346 12.7843C91.4351 13.0747 91.6905 13.3602 91.9008 13.6406C92.001 13.7708 92.0511 13.9561 92.0511 14.1965V16.6154H94.7103C95.0108 16.6154 95.2161 16.6805 95.3263 16.8107C95.4465 16.9309 95.5066 17.1412 95.5066 17.4417V19.2897C95.5066 19.5901 95.4465 19.8055 95.3263 19.9357C95.2161 20.0559 95.0108 20.116 94.7103 20.116H92.0511V26.3359C92.0511 27.9385 92.632 28.7398 93.7939 28.7398C93.9742 28.7398 94.1394 28.7248 94.2897 28.6947C94.4399 28.6546 94.5701 28.6146 94.6803 28.5745C94.8906 28.4944 95.0359 28.4643 95.116 28.4844C95.2061 28.5044 95.2863 28.6146 95.3564 28.8149L96.2278 31.1436C96.3179 31.394 96.2578 31.5743 96.0475 31.6845C95.8972 31.7546 95.5316 31.8848 94.9507 32.0751C94.3798 32.2754 93.5084 32.3756 92.3365 32.3756Z" fill="white"/>
<g clip-path="url(#clip0_61_1979)">
<path d="M117.544 26.1442L107.135 20.399C106.655 20.1298 106.054 20.2163 105.664 20.6057L105.655 20.6105C105.073 21.1971 105.212 22.173 105.934 22.5721L114.977 27.5576L117.544 26.1442Z" fill="#FFB30F"/>
<path d="M130.081 33.0625L122.1 28.6587L119.533 30.0721L128.884 35.2308C129.072 35.3317 129.278 35.3846 129.48 35.3846C129.802 35.3846 130.12 35.2596 130.355 35.024C130.937 34.4423 130.798 33.4615 130.081 33.0625Z" fill="#FFB30F"/>
<path d="M131.416 20.6052C131.027 20.2155 130.426 20.1306 129.944 20.3969L106.999 33.0643C106.278 33.4622 106.14 34.44 106.722 35.0222C107.111 35.4118 107.712 35.4968 108.194 35.2307L131.146 22.5706C131.867 22.1728 132.006 21.1948 131.424 20.6124L131.416 20.6052Z" fill="#FFB30F"/>
<path d="M113.972 8.46154C114.231 8.46154 114.473 8.39781 114.693 8.29276V9.18269C114.693 10.3757 115.663 11.3462 116.856 11.3462C117.535 11.3462 118.142 11.0321 118.539 10.541C118.936 11.0321 119.543 11.3462 120.222 11.3462C121.415 11.3462 122.385 10.3757 122.385 9.18269V5.09616C122.385 4.83042 122.17 4.61539 121.904 4.61539C121.639 4.61539 121.424 4.83042 121.424 5.09616V9.18269C121.424 9.84563 120.885 10.3846 120.222 10.3846C119.559 10.3846 119.02 9.84563 119.02 9.18269V5.09616C119.02 4.83042 118.805 4.61539 118.539 4.61539C118.274 4.61539 118.058 4.83042 118.058 5.09616V9.18269C118.058 9.84563 117.519 10.3846 116.856 10.3846C116.194 10.3846 115.654 9.84563 115.654 9.18269V5.09616C115.654 4.83042 115.439 4.61539 115.174 4.61539H114.453C113.26 4.61539 112.289 5.58585 112.289 6.77885C112.289 7.70658 113.044 8.46154 113.972 8.46154ZM114.453 5.57693H114.693V6.77885C114.693 7.17652 114.369 7.5 113.972 7.5C113.574 7.5 113.251 7.17652 113.251 6.77885C113.251 6.11591 113.79 5.57693 114.453 5.57693Z" fill="#FFB30F"/>
<path d="M124.309 11.3462C124.575 11.3462 124.79 11.1311 124.79 10.8654V5.09616C124.79 4.83042 124.575 4.61539 124.309 4.61539C124.043 4.61539 123.828 4.83042 123.828 5.09616V10.8654C123.828 11.1311 124.043 11.3462 124.309 11.3462Z" fill="#FFB30F"/>
<path d="M114.832 13.41C114.644 13.5978 114.644 13.9021 114.832 14.0899L115.794 15.0514C115.888 15.1453 116.011 15.1923 116.134 15.1923C116.257 15.1923 116.38 15.1453 116.474 15.0514C116.661 14.8636 116.661 14.5594 116.474 14.3716L115.512 13.41C115.324 13.2222 115.02 13.2222 114.832 13.41Z" fill="#FFB30F"/>
<path d="M121.083 13.4101L120.121 14.3716C119.934 14.5594 119.934 14.8637 120.121 15.0515C120.215 15.1454 120.338 15.1923 120.461 15.1923C120.584 15.1923 120.707 15.1454 120.801 15.0515L121.763 14.0899C121.95 13.9021 121.95 13.5979 121.763 13.4101C121.575 13.2223 121.271 13.2223 121.083 13.4101Z" fill="#FFB30F"/>
<path d="M118.059 12.7884V14.2307C118.059 14.4965 118.274 14.7115 118.539 14.7115C118.805 14.7115 119.02 14.4965 119.02 14.2307V12.7884C119.02 12.5227 118.805 12.3076 118.539 12.3076C118.274 12.3076 118.059 12.5227 118.059 12.7884Z" fill="#FFB30F"/>
<path d="M133.547 17.125L132.752 15.5336C132.691 15.4125 132.542 15.3653 132.423 15.4292L118.767 22.7447C118.696 22.7827 118.618 22.8015 118.54 22.8015C118.462 22.8015 118.384 22.7827 118.313 22.7447L104.658 15.4291C104.538 15.3651 104.39 15.4124 104.329 15.5335L103.533 17.1251C103.475 17.2407 103.519 17.3813 103.633 17.4434L118.54 25.6185L133.448 17.4433C133.561 17.3812 133.605 17.2406 133.547 17.125Z" fill="#FFB30F"/>
<path d="M131.03 15.0865L129.534 12.4663C129.414 12.2548 129.155 12.1682 128.933 12.2595C125.044 13.8797 121.563 16.2115 118.587 19.1874L118.539 19.2403L118.491 19.1874C115.515 16.2115 112.034 13.8797 108.145 12.2595C107.924 12.1682 107.664 12.2548 107.544 12.4663L106.049 15.0865L118.539 21.774L131.03 15.0865Z" fill="#FFB30F"/>
</g>
<path d="M147.35 31.2037C147.35 31.5042 147.285 31.7145 147.154 31.8347C147.034 31.9449 146.824 32 146.523 32H143.323C143.023 32 142.807 31.9449 142.677 31.8347C142.557 31.7145 142.497 31.5042 142.497 31.2037V12.8594C142.497 12.5689 142.547 12.3486 142.647 12.1983C143.098 11.5373 143.729 10.8411 144.54 10.11C144.69 9.98978 144.821 9.92969 144.931 9.92969C145.051 9.92969 145.176 9.98978 145.306 10.11C145.747 10.4906 146.118 10.8562 146.418 11.2067C146.719 11.5473 146.979 11.8778 147.199 12.1983C147.3 12.3586 147.35 12.5789 147.35 12.8594V31.2037ZM168.066 22.4297V31.2037C168.066 31.5042 168.001 31.7145 167.871 31.8347C167.75 31.9449 167.54 32 167.24 32H164.145C163.844 32 163.629 31.9449 163.499 31.8347C163.378 31.7145 163.318 31.5042 163.318 31.2037V23.2109C163.318 22.1192 163.088 21.3229 162.627 20.8221C162.167 20.3213 161.541 20.0709 160.749 20.0709C159.958 20.0709 159.347 20.2412 158.916 20.5817C158.496 20.9223 158.17 21.353 157.94 21.8738V31.2037C157.94 31.5042 157.875 31.7145 157.744 31.8347C157.624 31.9449 157.414 32 157.113 32H154.018C153.718 32 153.503 31.9449 153.372 31.8347C153.252 31.7145 153.192 31.5042 153.192 31.2037V18.6136C153.192 18.3732 153.242 18.1879 153.342 18.0577C153.553 17.7772 153.803 17.4918 154.094 17.2013C154.394 16.9109 154.76 16.6004 155.19 16.2698C155.321 16.1697 155.446 16.1196 155.566 16.1196C155.676 16.1196 155.801 16.1697 155.942 16.2698C156.362 16.6004 156.723 16.9159 157.023 17.2163C157.324 17.5168 157.589 17.8273 157.82 18.1478H157.895C158.065 17.9275 158.32 17.6721 158.661 17.3816C159.001 17.0811 159.477 16.8157 160.088 16.5853C160.709 16.355 161.5 16.2398 162.462 16.2398C163.403 16.2398 164.3 16.4301 165.151 16.8107C166.003 17.1913 166.699 17.8323 167.24 18.7338C167.791 19.6352 168.066 20.8672 168.066 22.4297ZM178.25 32.3756C177.179 32.3756 176.287 32.2855 175.576 32.1052C174.875 31.9249 174.309 31.7095 173.878 31.4591C173.458 31.1987 173.127 30.9633 172.887 30.753C172.707 30.5827 172.687 30.3924 172.827 30.1821L174.359 27.9135C174.58 27.5929 174.83 27.5729 175.11 27.8534C175.401 28.1338 175.792 28.4093 176.282 28.6797C176.783 28.9401 177.404 29.0703 178.145 29.0703C178.806 29.0703 179.347 28.9601 179.768 28.7398C180.199 28.5094 180.414 28.1789 180.414 27.7482C180.414 27.4477 180.319 27.2023 180.128 27.012C179.938 26.8217 179.603 26.6264 179.122 26.4261C178.641 26.2258 177.97 25.9704 177.109 25.6599C175.837 25.1991 174.875 24.6432 174.224 23.9922C173.573 23.3411 173.247 22.3896 173.247 21.1376C173.247 19.9858 173.563 19.0493 174.194 18.3281C174.835 17.607 175.651 17.0811 176.643 16.7506C177.644 16.4101 178.686 16.2398 179.768 16.2398C181.14 16.2398 182.102 16.37 182.652 16.6304C183.213 16.8808 183.574 17.0761 183.734 17.2163C183.884 17.3466 183.99 17.4968 184.05 17.6671C184.18 18.0577 184.28 18.5735 184.35 19.2145C184.39 19.5851 184.295 19.8305 184.065 19.9507C183.945 20.0208 183.754 20.096 183.494 20.1761C183.233 20.2562 182.973 20.3263 182.713 20.3864C182.452 20.4465 182.257 20.4766 182.127 20.4766C182.087 20.4766 182.042 20.4665 181.991 20.4465C181.951 20.4165 181.876 20.3514 181.766 20.2512C181.636 20.121 181.411 19.9708 181.09 19.8005C180.779 19.6302 180.349 19.5451 179.798 19.5451C179.257 19.5451 178.801 19.6352 178.431 19.8155C178.07 19.9858 177.89 20.2913 177.89 20.732C177.89 21.2127 178.12 21.5733 178.581 21.8137C179.052 22.0541 179.823 22.3646 180.895 22.7452C181.736 23.0357 182.467 23.3562 183.088 23.7067C183.719 24.0473 184.205 24.498 184.546 25.0589C184.886 25.6098 185.056 26.356 185.056 27.2975C185.056 28.5194 184.721 29.506 184.05 30.2572C183.389 30.9984 182.537 31.5393 181.496 31.8798C180.464 32.2103 179.382 32.3756 178.25 32.3756ZM195.331 32.3756C191.986 32.3756 190.313 30.6378 190.313 27.1623V20.116H188.615C188.315 20.116 188.104 20.0559 187.984 19.9357C187.874 19.8055 187.819 19.5901 187.819 19.2897V17.4417C187.819 17.1412 187.874 16.9309 187.984 16.8107C188.104 16.6805 188.315 16.6154 188.615 16.6154H190.313V14.1965C190.313 13.9561 190.363 13.7708 190.463 13.6406C190.884 13.0897 191.5 12.4938 192.311 11.8528C192.451 11.7526 192.577 11.7025 192.687 11.7025C192.807 11.7025 192.927 11.7526 193.047 11.8528C193.478 12.1833 193.839 12.4938 194.129 12.7843C194.43 13.0747 194.685 13.3602 194.895 13.6406C194.995 13.7708 195.046 13.9561 195.046 14.1965V16.6154H197.705C198.005 16.6154 198.211 16.6805 198.321 16.8107C198.441 16.9309 198.501 17.1412 198.501 17.4417V19.2897C198.501 19.5901 198.441 19.8055 198.321 19.9357C198.211 20.0559 198.005 20.116 197.705 20.116H195.046V26.3359C195.046 27.9385 195.626 28.7398 196.788 28.7398C196.969 28.7398 197.134 28.7248 197.284 28.6947C197.434 28.6546 197.565 28.6146 197.675 28.5745C197.885 28.4944 198.03 28.4643 198.11 28.4844C198.201 28.5044 198.281 28.6146 198.351 28.8149L199.222 31.1436C199.312 31.394 199.252 31.5743 199.042 31.6845C198.892 31.7546 198.526 31.8848 197.945 32.0751C197.374 32.2754 196.503 32.3756 195.331 32.3756ZM202.901 11.5673C202.901 11.4371 202.941 11.3219 203.021 11.2218C203.102 11.1216 203.207 10.9914 203.337 10.8311C203.617 10.5106 203.943 10.1751 204.314 9.82452C204.684 9.46394 205.06 9.11839 205.44 8.78786C205.681 8.59756 205.861 8.5024 205.981 8.5024C206.101 8.5024 206.287 8.59756 206.537 8.78786C207.348 9.48898 208.04 10.1701 208.61 10.8311C208.741 10.9814 208.846 11.1116 208.926 11.2218C209.016 11.3219 209.061 11.4371 209.061 11.5673C209.061 11.6975 209.016 11.8127 208.926 11.9129C208.846 12.013 208.736 12.1482 208.595 12.3185C208.325 12.629 208.009 12.9645 207.649 13.3251C207.288 13.6757 206.918 14.0112 206.537 14.3317C206.397 14.4519 206.287 14.5321 206.207 14.5721C206.126 14.6022 206.051 14.6172 205.981 14.6172C205.911 14.6172 205.836 14.6022 205.756 14.5721C205.686 14.5321 205.571 14.4519 205.41 14.3317C205.01 14.0112 204.634 13.6757 204.283 13.3251C203.933 12.9645 203.617 12.619 203.337 12.2885C203.207 12.1282 203.102 12.003 203.021 11.9129C202.941 11.8127 202.901 11.6975 202.901 11.5673ZM208.34 31.2037C208.34 31.5042 208.275 31.7145 208.145 31.8347C208.024 31.9449 207.814 32 207.514 32H204.419C204.118 32 203.903 31.9449 203.773 31.8347C203.652 31.7145 203.592 31.5042 203.592 31.2037V17.4117C203.592 17.1112 203.652 16.9058 203.773 16.7957C203.903 16.6755 204.118 16.6154 204.419 16.6154H207.514C207.814 16.6154 208.024 16.6755 208.145 16.7957C208.275 16.9058 208.34 17.1112 208.34 17.4117V31.2037ZM220.357 32.3756C217.012 32.3756 215.339 30.6378 215.339 27.1623V20.116H213.642C213.341 20.116 213.131 20.0559 213.011 19.9357C212.9 19.8055 212.845 19.5901 212.845 19.2897V17.4417C212.845 17.1412 212.9 16.9309 213.011 16.8107C213.131 16.6805 213.341 16.6154 213.642 16.6154H215.339V14.1965C215.339 13.9561 215.389 13.7708 215.49 13.6406C215.91 13.0897 216.526 12.4938 217.338 11.8528C217.478 11.7526 217.603 11.7025 217.713 11.7025C217.833 11.7025 217.954 11.7526 218.074 11.8528C218.504 12.1833 218.865 12.4938 219.155 12.7843C219.456 13.0747 219.711 13.3602 219.922 13.6406C220.022 13.7708 220.072 13.9561 220.072 14.1965V16.6154H222.731C223.032 16.6154 223.237 16.6805 223.347 16.8107C223.467 16.9309 223.527 17.1412 223.527 17.4417V19.2897C223.527 19.5901 223.467 19.8055 223.347 19.9357C223.237 20.0559 223.032 20.116 222.731 20.116H220.072V26.3359C220.072 27.9385 220.653 28.7398 221.815 28.7398C221.995 28.7398 222.16 28.7248 222.311 28.6947C222.461 28.6546 222.591 28.6146 222.701 28.5745C222.912 28.4944 223.057 28.4643 223.137 28.4844C223.227 28.5044 223.307 28.6146 223.377 28.8149L224.249 31.1436C224.339 31.394 224.279 31.5743 224.068 31.6845C223.918 31.7546 223.553 31.8848 222.972 32.0751C222.401 32.2754 221.529 32.3756 220.357 32.3756ZM233.682 32.3756C230.116 32.3756 228.333 30.2171 228.333 25.9002L228.318 18.268C228.318 18.0276 228.368 17.8423 228.469 17.7121C228.889 17.1613 229.505 16.5653 230.317 15.9243C230.457 15.8241 230.582 15.774 230.692 15.774C230.822 15.774 230.948 15.8241 231.068 15.9243C231.498 16.2548 231.859 16.5653 232.149 16.8558C232.45 17.1462 232.705 17.4317 232.916 17.7121C233.016 17.8423 233.066 18.0276 233.066 18.268V25.4796C233.066 27.653 233.927 28.7398 235.65 28.7398C236.501 28.7398 237.183 28.4443 237.693 27.8534C238.204 27.2524 238.46 26.4411 238.46 25.4195V18.268C238.46 18.0276 238.51 17.8423 238.61 17.7121C239.031 17.1613 239.646 16.5653 240.458 15.9243C240.598 15.8241 240.723 15.774 240.833 15.774C240.964 15.774 241.089 15.8241 241.209 15.9243C241.64 16.2548 242 16.5653 242.291 16.8558C242.591 17.1462 242.847 17.4317 243.057 17.7121C243.157 17.8423 243.207 18.0276 243.207 18.268V31.3089C243.207 31.4992 243.142 31.6645 243.012 31.8047C242.882 31.9349 242.716 32 242.516 32H240.262C240.102 32 239.957 31.98 239.827 31.9399C239.707 31.8898 239.591 31.7997 239.481 31.6695L238.55 30.4675H238.445C238.284 30.6979 238.034 30.9633 237.693 31.2638C237.363 31.5643 236.877 31.8247 236.236 32.0451C235.605 32.2654 234.754 32.3756 233.682 32.3756ZM254.909 32.3756C251.564 32.3756 249.891 30.6378 249.891 27.1623V20.116H248.193C247.893 20.116 247.683 20.0559 247.562 19.9357C247.452 19.8055 247.397 19.5901 247.397 19.2897V17.4417C247.397 17.1412 247.452 16.9309 247.562 16.8107C247.683 16.6805 247.893 16.6154 248.193 16.6154H249.891V14.1965C249.891 13.9561 249.941 13.7708 250.041 13.6406C250.462 13.0897 251.078 12.4938 251.889 11.8528C252.029 11.7526 252.155 11.7025 252.265 11.7025C252.385 11.7025 252.505 11.7526 252.625 11.8528C253.056 12.1833 253.417 12.4938 253.707 12.7843C254.008 13.0747 254.263 13.3602 254.473 13.6406C254.574 13.7708 254.624 13.9561 254.624 14.1965V16.6154H257.283C257.583 16.6154 257.789 16.6805 257.899 16.8107C258.019 16.9309 258.079 17.1412 258.079 17.4417V19.2897C258.079 19.5901 258.019 19.8055 257.899 19.9357C257.789 20.0559 257.583 20.116 257.283 20.116H254.624V26.3359C254.624 27.9385 255.205 28.7398 256.366 28.7398C256.547 28.7398 256.712 28.7248 256.862 28.6947C257.012 28.6546 257.143 28.6146 257.253 28.5745C257.463 28.4944 257.608 28.4643 257.689 28.4844C257.779 28.5044 257.859 28.6146 257.929 28.8149L258.8 31.1436C258.89 31.394 258.83 31.5743 258.62 31.6845C258.47 31.7546 258.104 31.8848 257.523 32.0751C256.952 32.2754 256.081 32.3756 254.909 32.3756ZM270.412 32.3756C268.719 32.3756 267.247 32.1052 265.995 31.5643C264.743 31.0134 263.771 30.1621 263.08 29.0102C262.389 27.8584 262.044 26.371 262.044 24.5481C262.044 21.8137 262.745 19.7454 264.147 18.3431C265.549 16.9409 267.412 16.2398 269.736 16.2398C271.248 16.2398 272.525 16.5102 273.567 17.0511C274.619 17.5919 275.415 18.3381 275.956 19.2897C276.507 20.2412 276.782 21.3279 276.782 22.5499C276.782 23.7418 276.477 24.5731 275.866 25.0439C275.255 25.5146 274.363 25.75 273.192 25.75H266.746C266.826 26.7817 267.202 27.5679 267.873 28.1088C268.554 28.6496 269.476 28.9201 270.637 28.9201C271.559 28.9201 272.295 28.7849 272.846 28.5144C273.407 28.234 273.798 28.0136 274.018 27.8534C274.208 27.7131 274.424 27.648 274.664 27.6581C274.854 27.6581 275.125 27.6981 275.475 27.7782C275.836 27.8484 276.191 27.9836 276.542 28.1839C276.792 28.3141 276.918 28.4944 276.918 28.7248C276.918 28.855 276.892 29.0403 276.842 29.2806C276.812 29.4209 276.762 29.6262 276.692 29.8966C276.622 30.1571 276.532 30.4024 276.422 30.6328C276.362 30.743 276.266 30.8482 276.136 30.9483C275.936 31.0885 275.61 31.2738 275.16 31.5042C274.719 31.7346 274.113 31.9349 273.342 32.1052C272.571 32.2855 271.594 32.3756 270.412 32.3756ZM266.716 22.6701H271.614C272.125 22.6701 272.38 22.4347 272.38 21.9639C272.38 21.2528 272.155 20.6569 271.704 20.1761C271.263 19.6853 270.597 19.4399 269.706 19.4399C268.734 19.4399 268.018 19.7504 267.558 20.3714C267.107 20.9924 266.826 21.7586 266.716 22.6701Z" fill="#1A1A1A"/>
<defs>
<clipPath id="clip0_61_1979">
<rect width="30.7692" height="30.7692" fill="white" transform="translate(103.154 4.61539)"/>
</clipPath>
</defs>
</svg>
