<svg width="279" height="40" viewBox="0 0 279 40" fill="none" xmlns="http://www.w3.org/2000/svg">
<path d="M8.50962 32.3606C7.23758 32.3606 6.18089 32.2454 5.33954 32.015C4.50821 31.7847 3.83714 31.4992 3.32632 31.1587C2.82552 30.8081 2.43991 30.4625 2.16947 30.122C2.07933 29.9918 1.9992 29.8666 1.92909 29.7464C1.85898 29.6262 1.8089 29.491 1.77885 29.3407C1.73878 29.1404 1.69872 28.88 1.65866 28.5595C1.61859 28.229 1.61358 27.8484 1.64363 27.4177C1.65365 27.2374 1.6887 27.1122 1.7488 27.0421C1.81891 26.9619 1.9341 26.9018 2.09435 26.8618C2.38482 26.7917 2.76042 26.7316 3.22116 26.6815C3.69191 26.6214 4.02745 26.5913 4.22777 26.5913C4.4381 26.5913 4.60837 26.6314 4.73858 26.7115C4.86879 26.7917 5.02404 26.9269 5.20433 27.1172C5.40465 27.3275 5.7502 27.598 6.24099 27.9285C6.73177 28.249 7.48798 28.4093 8.50962 28.4093C9.49119 28.4093 10.2324 28.2039 10.7332 27.7933C11.234 27.3826 11.4844 26.8117 11.4844 26.0805C11.4844 25.6899 11.3642 25.3243 11.1238 24.9838C10.8934 24.6332 10.4677 24.2877 9.84676 23.9471C9.22576 23.5966 8.33934 23.231 7.1875 22.8504C5.28446 22.2093 3.91226 21.4131 3.07091 20.4615C2.22957 19.51 1.8089 18.1879 1.8089 16.4952C1.8089 15.0929 2.14944 13.9211 2.83053 12.9796C3.51162 12.0381 4.45313 11.3269 5.65505 10.8462C6.85697 10.3654 8.24419 10.125 9.81671 10.125C11.0286 10.125 12.0302 10.2702 12.8215 10.5607C13.6228 10.8411 14.2438 11.1617 14.6845 11.5222C15.1252 11.8728 15.4107 12.1583 15.5409 12.3786C15.621 12.5088 15.6711 12.609 15.6911 12.6791C15.7212 12.7392 15.7412 12.8243 15.7512 12.9345C15.7813 13.245 15.7913 13.5905 15.7813 13.9712C15.7712 14.3518 15.7362 14.7825 15.6761 15.2632C15.646 15.4235 15.5909 15.5337 15.5108 15.5937C15.4407 15.6438 15.3305 15.6689 15.1803 15.6689C14.2087 15.6889 13.4575 15.6388 12.9267 15.5186C12.7163 15.4685 12.5761 15.4185 12.506 15.3684C12.4359 15.3183 12.3458 15.2382 12.2356 15.128C12.0753 14.9377 11.8199 14.7173 11.4694 14.4669C11.1288 14.2065 10.5779 14.0763 9.81671 14.0763C8.76503 14.0763 8.01883 14.3167 7.57813 14.7975C7.13742 15.2682 6.91707 15.7991 6.91707 16.39C6.91707 17.0911 7.24259 17.642 7.89363 18.0427C8.54467 18.4333 9.57132 18.879 10.9736 19.3798C12.1454 19.7905 13.152 20.2362 13.9934 20.7169C14.8347 21.1977 15.4758 21.8137 15.9165 22.5649C16.3672 23.3161 16.5925 24.3077 16.5925 25.5397C16.5925 27.0721 16.237 28.3442 15.5258 29.3558C14.8247 30.3674 13.8632 31.1236 12.6412 31.6244C11.4293 32.1152 10.0521 32.3606 8.50962 32.3606ZM35.5811 18.1929C35.9517 17.7422 36.5226 17.3065 37.2939 16.8858C38.0751 16.4551 39.1719 16.2398 40.5841 16.2398C42.5873 16.2398 44.0347 16.7556 44.9261 17.7873C45.8175 18.8189 46.2632 20.3664 46.2632 22.4297V31.2037C46.2632 31.5042 46.1981 31.7145 46.0679 31.8347C45.9477 31.9449 45.7374 32 45.4369 32H42.3419C42.0415 32 41.8261 31.9449 41.6959 31.8347C41.5757 31.7145 41.5156 31.5042 41.5156 31.2037V23.2109C41.5156 22.0891 41.3103 21.2879 40.8996 20.8071C40.489 20.3163 39.873 20.0709 39.0517 20.0709C38.3205 20.0709 37.7396 20.2362 37.3089 20.5667C36.8882 20.8872 36.5877 21.3229 36.4075 21.8738V31.2037C36.4075 31.5042 36.3423 31.7145 36.2121 31.8347C36.0919 31.9449 35.8816 32 35.5811 32H32.4862C32.1857 32 31.9704 31.9449 31.8401 31.8347C31.72 31.7145 31.6599 31.5042 31.6599 31.2037V23.2109C31.6599 22.1192 31.4345 21.3229 30.9838 20.8221C30.5331 20.3213 29.9421 20.0709 29.2109 20.0709C28.5198 20.0709 27.9639 20.2412 27.5433 20.5817C27.1226 20.9223 26.7971 21.353 26.5667 21.8738V31.2037C26.5667 31.5042 26.5016 31.7145 26.3714 31.8347C26.2512 31.9449 26.0409 32 25.7404 32H22.6454C22.345 32 22.1296 31.9449 21.9994 31.8347C21.8792 31.7145 21.8191 31.5042 21.8191 31.2037V18.6136C21.8191 18.3732 21.8692 18.1879 21.9694 18.0577C22.1797 17.7772 22.4301 17.4918 22.7206 17.2013C23.021 16.9109 23.3866 16.6004 23.8173 16.2698C23.9475 16.1697 24.0727 16.1196 24.1929 16.1196C24.3031 16.1196 24.4283 16.1697 24.5685 16.2698C24.9892 16.6004 25.3498 16.9159 25.6502 17.2163C25.9507 17.5168 26.2161 17.8273 26.4465 18.1478H26.5216C26.8622 17.7171 27.393 17.2915 28.1142 16.8708C28.8353 16.4501 29.867 16.2398 31.2091 16.2398C32.4912 16.2398 33.4427 16.4351 34.0637 16.8257C34.6847 17.2063 35.1905 17.6621 35.5811 18.1929ZM56.1623 32.3756C54.6899 32.3756 53.518 31.9649 52.6466 31.1436C51.7853 30.3123 51.3546 29.1705 51.3546 27.7181C51.3546 26.9669 51.4898 26.2708 51.7602 25.6298C52.0407 24.9788 52.5214 24.4079 53.2025 23.9171C53.8936 23.4163 54.8552 23.0156 56.0871 22.7151C57.3291 22.4147 58.9117 22.2394 60.8347 22.1893C60.8347 21.2778 60.6044 20.6218 60.1436 20.2212C59.6929 19.8205 59.0118 19.6202 58.1004 19.6202C57.279 19.6202 56.608 19.7604 56.0871 20.0409C55.5663 20.3213 55.2408 20.5116 55.1106 20.6118C54.9704 20.732 54.8001 20.777 54.5998 20.747C54.3293 20.7069 54.0389 20.6368 53.7284 20.5367C53.4279 20.4365 53.1024 20.3213 52.7518 20.1911C52.7017 20.1711 52.6466 20.141 52.5865 20.101C52.5264 20.0509 52.4914 19.9808 52.4814 19.8906C52.4814 19.8405 52.4864 19.7804 52.4964 19.7103C52.5064 19.6302 52.5315 19.49 52.5715 19.2897C52.6116 19.0893 52.6717 18.8439 52.7518 18.5535C52.8319 18.253 52.9071 18.0226 52.9772 17.8624C53.0673 17.6921 53.2175 17.5319 53.4279 17.3816C53.5982 17.2414 54.114 17.016 54.9754 16.7055C55.8367 16.395 57.0837 16.2398 58.7163 16.2398C63.2135 16.2398 65.4621 18.4283 65.4621 22.8053V31.3089C65.4621 31.4992 65.4071 31.6645 65.2969 31.8047C65.1967 31.9349 65.0214 32 64.771 32H62.5174C62.3572 32 62.2119 31.98 62.0817 31.9399C61.9615 31.8898 61.8464 31.7997 61.7362 31.6695L60.8047 30.4675H60.6995C60.2388 31.1386 59.6178 31.6244 58.8365 31.9249C58.0653 32.2254 57.1739 32.3756 56.1623 32.3756ZM57.8149 28.89C58.7364 28.89 59.4325 28.6546 59.9032 28.1839C60.374 27.7131 60.6745 27.2274 60.8047 26.7266V25.0589C59.4125 25.0589 58.3658 25.1691 57.6647 25.3894C56.9736 25.5998 56.5128 25.8802 56.2825 26.2308C56.0521 26.5713 55.9369 26.9419 55.9369 27.3425C55.9369 27.9235 56.1172 28.3291 56.4778 28.5595C56.8383 28.7798 57.2841 28.89 57.8149 28.89ZM75.9621 19.47H76.0222C76.7734 17.3866 78.1256 16.345 80.0787 16.345C80.3291 16.345 80.5345 16.36 80.6947 16.39C80.855 16.4101 80.9651 16.4301 81.0252 16.4501C81.1755 16.5002 81.2506 16.6154 81.2506 16.7957V20.4165C81.2506 20.727 81.0703 20.8121 80.7097 20.6719C80.5895 20.6218 80.4143 20.5717 80.1839 20.5216C79.9635 20.4615 79.653 20.4315 79.2524 20.4315C78.2208 20.4315 77.4145 20.8121 76.8335 21.5733C76.2526 22.3245 75.9621 23.3512 75.9621 24.6532V31.2037C75.9621 31.5042 75.897 31.7145 75.7668 31.8347C75.6466 31.9449 75.4363 32 75.1358 32H72.0409C71.7404 32 71.525 31.9449 71.3948 31.8347C71.2746 31.7145 71.2145 31.5042 71.2145 31.2037V18.6136C71.2145 18.3732 71.2646 18.1879 71.3648 18.0577C71.5751 17.7772 71.8255 17.4918 72.116 17.2013C72.4165 16.9109 72.7821 16.6004 73.2127 16.2698C73.2929 16.2097 73.373 16.1697 73.4531 16.1496C73.5333 16.1296 73.6034 16.1196 73.6635 16.1196C73.8037 16.1196 73.9439 16.1697 74.0841 16.2698C74.9155 16.9209 75.4964 17.4768 75.8269 17.9375C75.9171 18.0577 75.9621 18.1979 75.9621 18.3582V19.47ZM92.3365 32.3756C88.9912 32.3756 87.3185 30.6378 87.3185 27.1623V20.116H85.6208C85.3203 20.116 85.11 20.0559 84.9898 19.9357C84.8796 19.8055 84.8245 19.5901 84.8245 19.2897V17.4417C84.8245 17.1412 84.8796 16.9309 84.9898 16.8107C85.11 16.6805 85.3203 16.6154 85.6208 16.6154H87.3185V14.1965C87.3185 13.9561 87.3686 13.7708 87.4687 13.6406C87.8894 13.0897 88.5054 12.4938 89.3167 11.8528C89.4569 11.7526 89.5821 11.7025 89.6923 11.7025C89.8125 11.7025 89.9327 11.7526 90.0529 11.8528C90.4836 12.1833 90.8441 12.4938 91.1346 12.7843C91.4351 13.0747 91.6905 13.3602 91.9008 13.6406C92.001 13.7708 92.0511 13.9561 92.0511 14.1965V16.6154H94.7103C95.0108 16.6154 95.2161 16.6805 95.3263 16.8107C95.4465 16.9309 95.5066 17.1412 95.5066 17.4417V19.2897C95.5066 19.5901 95.4465 19.8055 95.3263 19.9357C95.2161 20.0559 95.0108 20.116 94.7103 20.116H92.0511V26.3359C92.0511 27.9385 92.632 28.7398 93.7939 28.7398C93.9742 28.7398 94.1394 28.7248 94.2897 28.6947C94.4399 28.6546 94.5701 28.6146 94.6803 28.5745C94.8906 28.4944 95.0359 28.4643 95.116 28.4844C95.2061 28.5044 95.2863 28.6146 95.3564 28.8149L96.2278 31.1436C96.3179 31.394 96.2578 31.5743 96.0475 31.6845C95.8972 31.7546 95.5316 31.8848 94.9507 32.0751C94.3798 32.2754 93.5084 32.3756 92.3365 32.3756Z" fill="#1C8E5A"/>
<g clip-path="url(#clip0_61_1879)">
<path d="M117.544 26.1442L107.135 20.399C106.655 20.1297 106.054 20.2163 105.664 20.6057L105.655 20.6105C105.073 21.197 105.212 22.173 105.934 22.572L114.977 27.5576L117.544 26.1442Z" fill="#FFB30F"/>
<path d="M130.082 33.0625L122.101 28.6587L119.534 30.0722L128.885 35.2308C129.073 35.3318 129.279 35.3846 129.481 35.3846C129.803 35.3846 130.121 35.2596 130.356 35.0241C130.938 34.4423 130.799 33.4616 130.082 33.0625Z" fill="#FFB30F"/>
<path d="M131.415 20.6052C131.026 20.2155 130.425 20.1305 129.943 20.3969L106.998 33.0643C106.277 33.4622 106.139 34.44 106.721 35.0222C107.111 35.4118 107.711 35.4968 108.193 35.2307L131.145 22.5706C131.866 22.1728 132.005 21.1948 131.423 20.6124L131.415 20.6052Z" fill="#FFB30F"/>
<path d="M113.972 8.46151C114.231 8.46151 114.473 8.39778 114.693 8.29272V9.18266C114.693 10.3757 115.663 11.3461 116.856 11.3461C117.535 11.3461 118.142 11.032 118.539 10.5409C118.936 11.032 119.543 11.3461 120.222 11.3461C121.415 11.3461 122.385 10.3757 122.385 9.18266V5.09613C122.385 4.83039 122.17 4.61536 121.904 4.61536C121.639 4.61536 121.424 4.83039 121.424 5.09613V9.18266C121.424 9.8456 120.885 10.3846 120.222 10.3846C119.559 10.3846 119.02 9.8456 119.02 9.18266V5.09613C119.02 4.83039 118.805 4.61536 118.539 4.61536C118.274 4.61536 118.058 4.83039 118.058 5.09613V9.18266C118.058 9.8456 117.519 10.3846 116.856 10.3846C116.194 10.3846 115.654 9.8456 115.654 9.18266V5.09613C115.654 4.83039 115.439 4.61536 115.174 4.61536H114.453C113.26 4.61536 112.289 5.58582 112.289 6.77882C112.289 7.70655 113.044 8.46151 113.972 8.46151ZM114.453 5.57689H114.693V6.77882C114.693 7.17649 114.369 7.49997 113.972 7.49997C113.574 7.49997 113.251 7.17649 113.251 6.77882C113.251 6.11588 113.79 5.57689 114.453 5.57689Z" fill="#FFB30F"/>
<path d="M124.308 11.3461C124.574 11.3461 124.789 11.1311 124.789 10.8654V5.09613C124.789 4.83039 124.574 4.61536 124.308 4.61536C124.042 4.61536 123.827 4.83039 123.827 5.09613V10.8654C123.827 11.1311 124.042 11.3461 124.308 11.3461Z" fill="#FFB30F"/>
<path d="M114.833 13.41C114.645 13.5978 114.645 13.9021 114.833 14.0899L115.795 15.0514C115.889 15.1453 116.012 15.1922 116.135 15.1922C116.258 15.1922 116.381 15.1453 116.475 15.0514C116.662 14.8636 116.662 14.5594 116.475 14.3716L115.513 13.41C115.325 13.2222 115.021 13.2222 114.833 13.41Z" fill="#FFB30F"/>
<path d="M121.084 13.41L120.122 14.3716C119.934 14.5594 119.934 14.8636 120.122 15.0514C120.216 15.1453 120.339 15.1922 120.462 15.1922C120.585 15.1922 120.708 15.1453 120.802 15.0514L121.764 14.0899C121.951 13.9021 121.951 13.5978 121.764 13.41C121.576 13.2222 121.272 13.2222 121.084 13.41Z" fill="#FFB30F"/>
<path d="M118.059 12.7884V14.2307C118.059 14.4964 118.274 14.7115 118.539 14.7115C118.805 14.7115 119.02 14.4964 119.02 14.2307V12.7884C119.02 12.5226 118.805 12.3076 118.539 12.3076C118.274 12.3076 118.059 12.5226 118.059 12.7884Z" fill="#FFB30F"/>
<path d="M133.546 17.125L132.751 15.5336C132.69 15.4125 132.542 15.3652 132.422 15.4292L118.766 22.7446C118.695 22.7827 118.618 22.8015 118.539 22.8015C118.461 22.8015 118.383 22.7827 118.312 22.7446L104.657 15.4291C104.537 15.3651 104.389 15.4123 104.328 15.5334L103.532 17.1251C103.474 17.2407 103.518 17.3812 103.632 17.4434L118.539 25.6185L133.447 17.4432C133.56 17.3811 133.604 17.2405 133.546 17.125Z" fill="#FFB30F"/>
<path d="M131.03 15.0864L129.534 12.4662C129.414 12.2547 129.155 12.1682 128.933 12.2595C125.044 13.8797 121.563 16.2115 118.587 19.1874L118.539 19.2403L118.491 19.1874C115.515 16.2115 112.034 13.8797 108.145 12.2595C107.924 12.1682 107.664 12.2547 107.544 12.4662L106.049 15.0864L118.539 21.774L131.03 15.0864Z" fill="#FFB30F"/>
</g>
<path d="M147.351 31.2037C147.351 31.5042 147.285 31.7145 147.155 31.8347C147.035 31.9449 146.825 32 146.524 32H143.324C143.024 32 142.808 31.9449 142.678 31.8347C142.558 31.7145 142.498 31.5042 142.498 31.2037V12.8594C142.498 12.5689 142.548 12.3486 142.648 12.1983C143.099 11.5373 143.73 10.8411 144.541 10.11C144.691 9.98978 144.822 9.92969 144.932 9.92969C145.052 9.92969 145.177 9.98978 145.307 10.11C145.748 10.4906 146.119 10.8562 146.419 11.2067C146.72 11.5473 146.98 11.8778 147.2 12.1983C147.301 12.3586 147.351 12.5789 147.351 12.8594V31.2037ZM168.067 22.4297V31.2037C168.067 31.5042 168.002 31.7145 167.872 31.8347C167.751 31.9449 167.541 32 167.241 32H164.146C163.845 32 163.63 31.9449 163.5 31.8347C163.379 31.7145 163.319 31.5042 163.319 31.2037V23.2109C163.319 22.1192 163.089 21.3229 162.628 20.8221C162.167 20.3213 161.541 20.0709 160.75 20.0709C159.959 20.0709 159.348 20.2412 158.917 20.5817C158.497 20.9223 158.171 21.353 157.941 21.8738V31.2037C157.941 31.5042 157.876 31.7145 157.745 31.8347C157.625 31.9449 157.415 32 157.114 32H154.019C153.719 32 153.504 31.9449 153.373 31.8347C153.253 31.7145 153.193 31.5042 153.193 31.2037V18.6136C153.193 18.3732 153.243 18.1879 153.343 18.0577C153.554 17.7772 153.804 17.4918 154.095 17.2013C154.395 16.9109 154.761 16.6004 155.191 16.2698C155.322 16.1697 155.447 16.1196 155.567 16.1196C155.677 16.1196 155.802 16.1697 155.943 16.2698C156.363 16.6004 156.724 16.9159 157.024 17.2163C157.325 17.5168 157.59 17.8273 157.821 18.1478H157.896C158.066 17.9275 158.321 17.6721 158.662 17.3816C159.002 17.0811 159.478 16.8157 160.089 16.5853C160.71 16.355 161.501 16.2398 162.463 16.2398C163.404 16.2398 164.301 16.4301 165.152 16.8107C166.004 17.1913 166.7 17.8323 167.241 18.7338C167.791 19.6352 168.067 20.8672 168.067 22.4297ZM178.251 32.3756C177.18 32.3756 176.288 32.2855 175.577 32.1052C174.876 31.9249 174.31 31.7095 173.879 31.4591C173.459 31.1987 173.128 30.9633 172.888 30.753C172.708 30.5827 172.688 30.3924 172.828 30.1821L174.36 27.9135C174.581 27.5929 174.831 27.5729 175.111 27.8534C175.402 28.1338 175.792 28.4093 176.283 28.6797C176.784 28.9401 177.405 29.0703 178.146 29.0703C178.807 29.0703 179.348 28.9601 179.769 28.7398C180.2 28.5094 180.415 28.1789 180.415 27.7482C180.415 27.4477 180.32 27.2023 180.129 27.012C179.939 26.8217 179.604 26.6264 179.123 26.4261C178.642 26.2258 177.971 25.9704 177.11 25.6599C175.838 25.1991 174.876 24.6432 174.225 23.9922C173.574 23.3411 173.248 22.3896 173.248 21.1376C173.248 19.9858 173.564 19.0493 174.195 18.3281C174.836 17.607 175.652 17.0811 176.644 16.7506C177.645 16.4101 178.687 16.2398 179.769 16.2398C181.141 16.2398 182.103 16.37 182.653 16.6304C183.214 16.8808 183.575 17.0761 183.735 17.2163C183.885 17.3466 183.991 17.4968 184.051 17.6671C184.181 18.0577 184.281 18.5735 184.351 19.2145C184.391 19.5851 184.296 19.8305 184.066 19.9507C183.946 20.0208 183.755 20.096 183.495 20.1761C183.234 20.2562 182.974 20.3263 182.714 20.3864C182.453 20.4465 182.258 20.4766 182.128 20.4766C182.088 20.4766 182.042 20.4665 181.992 20.4465C181.952 20.4165 181.877 20.3514 181.767 20.2512C181.637 20.121 181.411 19.9708 181.091 19.8005C180.78 19.6302 180.35 19.5451 179.799 19.5451C179.258 19.5451 178.802 19.6352 178.432 19.8155C178.071 19.9858 177.891 20.2913 177.891 20.732C177.891 21.2127 178.121 21.5733 178.582 21.8137C179.053 22.0541 179.824 22.3646 180.896 22.7452C181.737 23.0357 182.468 23.3562 183.089 23.7067C183.72 24.0473 184.206 24.498 184.546 25.0589C184.887 25.6098 185.057 26.356 185.057 27.2975C185.057 28.5194 184.722 29.506 184.051 30.2572C183.39 30.9984 182.538 31.5393 181.497 31.8798C180.465 32.2103 179.383 32.3756 178.251 32.3756ZM195.332 32.3756C191.987 32.3756 190.314 30.6378 190.314 27.1623V20.116H188.616C188.316 20.116 188.105 20.0559 187.985 19.9357C187.875 19.8055 187.82 19.5901 187.82 19.2897V17.4417C187.82 17.1412 187.875 16.9309 187.985 16.8107C188.105 16.6805 188.316 16.6154 188.616 16.6154H190.314V14.1965C190.314 13.9561 190.364 13.7708 190.464 13.6406C190.885 13.0897 191.501 12.4938 192.312 11.8528C192.452 11.7526 192.578 11.7025 192.688 11.7025C192.808 11.7025 192.928 11.7526 193.048 11.8528C193.479 12.1833 193.84 12.4938 194.13 12.7843C194.431 13.0747 194.686 13.3602 194.896 13.6406C194.996 13.7708 195.046 13.9561 195.046 14.1965V16.6154H197.706C198.006 16.6154 198.212 16.6805 198.322 16.8107C198.442 16.9309 198.502 17.1412 198.502 17.4417V19.2897C198.502 19.5901 198.442 19.8055 198.322 19.9357C198.212 20.0559 198.006 20.116 197.706 20.116H195.046V26.3359C195.046 27.9385 195.627 28.7398 196.789 28.7398C196.97 28.7398 197.135 28.7248 197.285 28.6947C197.435 28.6546 197.566 28.6146 197.676 28.5745C197.886 28.4944 198.031 28.4643 198.111 28.4844C198.202 28.5044 198.282 28.6146 198.352 28.8149L199.223 31.1436C199.313 31.394 199.253 31.5743 199.043 31.6845C198.893 31.7546 198.527 31.8848 197.946 32.0751C197.375 32.2754 196.504 32.3756 195.332 32.3756ZM202.902 11.5673C202.902 11.4371 202.942 11.3219 203.022 11.2218C203.103 11.1216 203.208 10.9914 203.338 10.8311C203.618 10.5106 203.944 10.1751 204.315 9.82452C204.685 9.46394 205.061 9.11839 205.441 8.78786C205.682 8.59756 205.862 8.5024 205.982 8.5024C206.102 8.5024 206.288 8.59756 206.538 8.78786C207.349 9.48898 208.04 10.1701 208.611 10.8311C208.742 10.9814 208.847 11.1116 208.927 11.2218C209.017 11.3219 209.062 11.4371 209.062 11.5673C209.062 11.6975 209.017 11.8127 208.927 11.9129C208.847 12.013 208.737 12.1482 208.596 12.3185C208.326 12.629 208.01 12.9645 207.65 13.3251C207.289 13.6757 206.919 14.0112 206.538 14.3317C206.398 14.4519 206.288 14.5321 206.208 14.5721C206.127 14.6022 206.052 14.6172 205.982 14.6172C205.912 14.6172 205.837 14.6022 205.757 14.5721C205.687 14.5321 205.572 14.4519 205.411 14.3317C205.011 14.0112 204.635 13.6757 204.284 13.3251C203.934 12.9645 203.618 12.619 203.338 12.2885C203.208 12.1282 203.103 12.003 203.022 11.9129C202.942 11.8127 202.902 11.6975 202.902 11.5673ZM208.341 31.2037C208.341 31.5042 208.276 31.7145 208.146 31.8347C208.025 31.9449 207.815 32 207.515 32H204.42C204.119 32 203.904 31.9449 203.774 31.8347C203.653 31.7145 203.593 31.5042 203.593 31.2037V17.4117C203.593 17.1112 203.653 16.9058 203.774 16.7957C203.904 16.6755 204.119 16.6154 204.42 16.6154H207.515C207.815 16.6154 208.025 16.6755 208.146 16.7957C208.276 16.9058 208.341 17.1112 208.341 17.4117V31.2037ZM220.358 32.3756C217.013 32.3756 215.34 30.6378 215.34 27.1623V20.116H213.643C213.342 20.116 213.132 20.0559 213.012 19.9357C212.901 19.8055 212.846 19.5901 212.846 19.2897V17.4417C212.846 17.1412 212.901 16.9309 213.012 16.8107C213.132 16.6805 213.342 16.6154 213.643 16.6154H215.34V14.1965C215.34 13.9561 215.39 13.7708 215.491 13.6406C215.911 13.0897 216.527 12.4938 217.339 11.8528C217.479 11.7526 217.604 11.7025 217.714 11.7025C217.834 11.7025 217.955 11.7526 218.075 11.8528C218.505 12.1833 218.866 12.4938 219.156 12.7843C219.457 13.0747 219.712 13.3602 219.923 13.6406C220.023 13.7708 220.073 13.9561 220.073 14.1965V16.6154H222.732C223.033 16.6154 223.238 16.6805 223.348 16.8107C223.468 16.9309 223.528 17.1412 223.528 17.4417V19.2897C223.528 19.5901 223.468 19.8055 223.348 19.9357C223.238 20.0559 223.033 20.116 222.732 20.116H220.073V26.3359C220.073 27.9385 220.654 28.7398 221.816 28.7398C221.996 28.7398 222.161 28.7248 222.312 28.6947C222.462 28.6546 222.592 28.6146 222.702 28.5745C222.912 28.4944 223.058 28.4643 223.138 28.4844C223.228 28.5044 223.308 28.6146 223.378 28.8149L224.25 31.1436C224.34 31.394 224.28 31.5743 224.069 31.6845C223.919 31.7546 223.554 31.8848 222.973 32.0751C222.402 32.2754 221.53 32.3756 220.358 32.3756ZM233.683 32.3756C230.117 32.3756 228.334 30.2171 228.334 25.9002L228.319 18.268C228.319 18.0276 228.369 17.8423 228.47 17.7121C228.89 17.1613 229.506 16.5653 230.318 15.9243C230.458 15.8241 230.583 15.774 230.693 15.774C230.823 15.774 230.949 15.8241 231.069 15.9243C231.499 16.2548 231.86 16.5653 232.15 16.8558C232.451 17.1462 232.706 17.4317 232.917 17.7121C233.017 17.8423 233.067 18.0276 233.067 18.268V25.4796C233.067 27.653 233.928 28.7398 235.651 28.7398C236.502 28.7398 237.184 28.4443 237.694 27.8534C238.205 27.2524 238.461 26.4411 238.461 25.4195V18.268C238.461 18.0276 238.511 17.8423 238.611 17.7121C239.031 17.1613 239.647 16.5653 240.459 15.9243C240.599 15.8241 240.724 15.774 240.834 15.774C240.965 15.774 241.09 15.8241 241.21 15.9243C241.641 16.2548 242.001 16.5653 242.292 16.8558C242.592 17.1462 242.848 17.4317 243.058 17.7121C243.158 17.8423 243.208 18.0276 243.208 18.268V31.3089C243.208 31.4992 243.143 31.6645 243.013 31.8047C242.883 31.9349 242.717 32 242.517 32H240.263C240.103 32 239.958 31.98 239.828 31.9399C239.708 31.8898 239.592 31.7997 239.482 31.6695L238.551 30.4675H238.446C238.285 30.6979 238.035 30.9633 237.694 31.2638C237.364 31.5643 236.878 31.8247 236.237 32.0451C235.606 32.2654 234.755 32.3756 233.683 32.3756ZM254.91 32.3756C251.565 32.3756 249.892 30.6378 249.892 27.1623V20.116H248.194C247.894 20.116 247.684 20.0559 247.563 19.9357C247.453 19.8055 247.398 19.5901 247.398 19.2897V17.4417C247.398 17.1412 247.453 16.9309 247.563 16.8107C247.684 16.6805 247.894 16.6154 248.194 16.6154H249.892V14.1965C249.892 13.9561 249.942 13.7708 250.042 13.6406C250.463 13.0897 251.079 12.4938 251.89 11.8528C252.03 11.7526 252.156 11.7025 252.266 11.7025C252.386 11.7025 252.506 11.7526 252.626 11.8528C253.057 12.1833 253.418 12.4938 253.708 12.7843C254.009 13.0747 254.264 13.3602 254.474 13.6406C254.575 13.7708 254.625 13.9561 254.625 14.1965V16.6154H257.284C257.584 16.6154 257.79 16.6805 257.9 16.8107C258.02 16.9309 258.08 17.1412 258.08 17.4417V19.2897C258.08 19.5901 258.02 19.8055 257.9 19.9357C257.79 20.0559 257.584 20.116 257.284 20.116H254.625V26.3359C254.625 27.9385 255.206 28.7398 256.367 28.7398C256.548 28.7398 256.713 28.7248 256.863 28.6947C257.013 28.6546 257.144 28.6146 257.254 28.5745C257.464 28.4944 257.609 28.4643 257.69 28.4844C257.78 28.5044 257.86 28.6146 257.93 28.8149L258.801 31.1436C258.891 31.394 258.831 31.5743 258.621 31.6845C258.471 31.7546 258.105 31.8848 257.524 32.0751C256.953 32.2754 256.082 32.3756 254.91 32.3756ZM270.413 32.3756C268.72 32.3756 267.248 32.1052 265.996 31.5643C264.744 31.0134 263.772 30.1621 263.081 29.0102C262.39 27.8584 262.045 26.371 262.045 24.5481C262.045 21.8137 262.746 19.7454 264.148 18.3431C265.55 16.9409 267.413 16.2398 269.737 16.2398C271.249 16.2398 272.526 16.5102 273.568 17.0511C274.62 17.5919 275.416 18.3381 275.957 19.2897C276.508 20.2412 276.783 21.3279 276.783 22.5499C276.783 23.7418 276.478 24.5731 275.867 25.0439C275.256 25.5146 274.364 25.75 273.193 25.75H266.747C266.827 26.7817 267.203 27.5679 267.874 28.1088C268.555 28.6496 269.477 28.9201 270.638 28.9201C271.56 28.9201 272.296 28.7849 272.847 28.5144C273.408 28.234 273.799 28.0136 274.019 27.8534C274.209 27.7131 274.425 27.648 274.665 27.6581C274.855 27.6581 275.126 27.6981 275.476 27.7782C275.837 27.8484 276.192 27.9836 276.543 28.1839C276.793 28.3141 276.918 28.4944 276.918 28.7248C276.918 28.855 276.893 29.0403 276.843 29.2806C276.813 29.4209 276.763 29.6262 276.693 29.8966C276.623 30.1571 276.533 30.4024 276.423 30.6328C276.363 30.743 276.267 30.8482 276.137 30.9483C275.937 31.0885 275.611 31.2738 275.161 31.5042C274.72 31.7346 274.114 31.9349 273.343 32.1052C272.572 32.2855 271.595 32.3756 270.413 32.3756ZM266.717 22.6701H271.615C272.126 22.6701 272.381 22.4347 272.381 21.9639C272.381 21.2528 272.156 20.6569 271.705 20.1761C271.264 19.6853 270.598 19.4399 269.707 19.4399C268.735 19.4399 268.019 19.7504 267.559 20.3714C267.108 20.9924 266.827 21.7586 266.717 22.6701Z" fill="#1A1A1A"/>
<defs>
<clipPath id="clip0_61_1879">
<rect width="30.7692" height="30.7692" fill="white" transform="translate(103.154 4.61536)"/>
</clipPath>
</defs>
</svg>
